<?xml version="1.0" encoding="UTF-8"?>
<svg id="_ëÎÓÈ_1" data-name="ëÎÓÈ 1" xmlns="http://www.w3.org/2000/svg" xmlns:xlink="http://www.w3.org/1999/xlink" viewBox="0 0 93 40">
  <defs>
    <style>
      .cls-1 {
        fill: url(#linear-gradient);
      }

      .cls-2 {
        fill: #fff;
      }
    </style>
    <linearGradient id="linear-gradient" x1="46.5" y1="40.35" x2="46.5" y2=".35" gradientUnits="userSpaceOnUse">
      <stop offset="0" stop-color="#0c0c0c"/>
      <stop offset=".58" stop-color="#2d2d2d"/>
      <stop offset="1" stop-color="#494949"/>
    </linearGradient>
  </defs>
  <rect class="cls-1" width="93" height="40" rx="12" ry="12"/>
  <g>
    <g>
      <path class="cls-2" d="M61.01,21.35c-.97-.15-1.72-1.27-1.72-2.64,0-1.19,.58-2.2,1.37-2.54,.07-.03,.13-.04,.18-.06-.59-.86-1.6-1.58-2.84-1.58-1.03,0-1.37,.66-2.5,.7-1.13-.04-1.47-.7-2.5-.7-5.02,0-4.52,8.96,.21,10.99,.66,.23,1.04-.59,2.3-.63,1.26,.04,1.64,.86,2.3,.63,1.65-.71,2.78-2.26,3.34-3.98,.03-.07,.04-.14,.05-.19,0,0-.05,0-.17-.02Z"/>
      <path class="cls-2" d="M55.45,14.35c.32-.04,1.38-.21,2-.95,.63-.74,.63-1.81,.61-2.13,0-.05-.05-.09-.1-.09-.32,.04-1.38,.21-2,.95-.63,.74-.63,1.81-.61,2.13,0,.05,.05,.09,.1,.09Z"/>
    </g>
    <g>
      <path class="cls-2" d="M66.81,19.67v4.65h-1.57V12.43h4.38c1.3,0,2.32,.33,3.06,1,.74,.66,1.11,1.54,1.11,2.64,0,1.15-.36,2.04-1.08,2.67-.72,.62-1.75,.93-3.1,.93h-2.8Zm0-1.28h2.82c.84,0,1.48-.2,1.93-.59,.45-.4,.67-.97,.67-1.71s-.22-1.28-.67-1.7c-.45-.43-1.06-.65-1.84-.66h-2.91v4.67Z"/>
      <path class="cls-2" d="M80.92,24.32c-.09-.17-.16-.48-.21-.93-.7,.73-1.54,1.09-2.51,1.09-.87,0-1.59-.25-2.14-.74-.56-.49-.84-1.12-.84-1.87,0-.92,.35-1.63,1.05-2.14,.7-.51,1.68-.76,2.95-.76h1.47v-.69c0-.53-.16-.95-.47-1.26-.32-.31-.78-.47-1.4-.47-.54,0-.99,.14-1.36,.41-.36,.27-.55,.6-.55,.99h-1.52c0-.44,.16-.87,.47-1.28,.31-.41,.74-.74,1.27-.98,.54-.24,1.13-.36,1.77-.36,1.02,0,1.82,.25,2.39,.76,.58,.51,.88,1.21,.9,2.1v4.07c0,.81,.1,1.46,.31,1.94v.13h-1.58Zm-2.51-1.15c.47,0,.92-.12,1.35-.37s.73-.56,.92-.96v-1.81h-1.18c-1.85,0-2.78,.54-2.78,1.62,0,.47,.16,.84,.47,1.11,.32,.27,.72,.4,1.22,.4Z"/>
      <path class="cls-2" d="M87.33,22.11l2.06-6.62h1.62l-3.55,10.2c-.55,1.47-1.42,2.2-2.62,2.2l-.29-.02-.56-.11v-1.22l.41,.03c.51,0,.91-.1,1.2-.31,.29-.21,.52-.59,.71-1.13l.33-.9-3.15-8.74h1.65l2.2,6.62Z"/>
    </g>
  </g>
  <g>
    <g>
      <path class="cls-2" d="M12.69,15.06h0c-.69-.68-1.63-1.09-2.75-1.09-1.93,0-3.57,1.24-4.16,2.96l-2.33-1.81c1.19-2.34,3.62-3.94,6.43-3.94,1.86,0,3.55,.7,4.83,1.86l-2.02,2.02Z"/>
      <path class="cls-2" d="M5.54,18.38c0,.49,.08,.96,.23,1.41l-2.33,1.85c-.49-.97-.77-2.07-.77-3.23s.28-2.29,.78-3.27l2.33,1.81c-.16,.45-.24,.94-.24,1.44Z"/>
      <path class="cls-2" d="M14.62,23.82c-1.24,1.13-2.9,1.75-4.74,1.75-2.82,0-5.26-1.6-6.45-3.94l2.33-1.85c.59,1.74,2.24,3,4.18,3,.97-.02,1.8-.25,2.46-.7l2.22,1.74Z"/>
      <path class="cls-2" d="M14.62,23.82l-2.22-1.74c.73-.5,1.23-1.27,1.46-2.34h0s-3.99,0-3.99,0v-2.68h6.75c.49,2.93-.38,5.28-2,6.76Z"/>
      <polygon class="cls-2" points="3.46 21.65 3.41 21.6 3.46 21.65 3.46 21.65"/>
    </g>
    <g>
      <path class="cls-2" d="M22.38,19.67v4.65h-1.57V12.43h4.38c1.3,0,2.32,.33,3.06,1,.74,.66,1.11,1.54,1.11,2.64,0,1.15-.36,2.04-1.08,2.67-.72,.62-1.75,.93-3.1,.93h-2.8Zm0-1.28h2.82c.84,0,1.48-.2,1.93-.59,.45-.4,.67-.97,.67-1.71s-.22-1.28-.67-1.7c-.45-.43-1.06-.65-1.84-.66h-2.91v4.67Z"/>
      <path class="cls-2" d="M36.49,24.32c-.09-.17-.16-.48-.21-.93-.7,.73-1.54,1.09-2.51,1.09-.87,0-1.59-.25-2.14-.74-.56-.49-.84-1.12-.84-1.87,0-.92,.35-1.63,1.05-2.14,.7-.51,1.68-.76,2.95-.76h1.47v-.69c0-.53-.16-.95-.47-1.26-.32-.31-.78-.47-1.4-.47-.54,0-.99,.14-1.36,.41-.36,.27-.55,.6-.55,.99h-1.52c0-.44,.16-.87,.47-1.28,.31-.41,.74-.74,1.27-.98,.54-.24,1.13-.36,1.77-.36,1.02,0,1.82,.25,2.39,.76,.58,.51,.88,1.21,.9,2.1v4.07c0,.81,.1,1.46,.31,1.94v.13h-1.58Zm-2.51-1.15c.47,0,.92-.12,1.35-.37,.42-.24,.73-.56,.92-.96v-1.81h-1.18c-1.85,0-2.78,.54-2.78,1.62,0,.47,.16,.84,.47,1.11,.32,.27,.72,.4,1.22,.4Z"/>
      <path class="cls-2" d="M42.9,22.11l2.06-6.62h1.62l-3.55,10.2c-.55,1.47-1.42,2.2-2.62,2.2l-.29-.02-.56-.11v-1.22l.41,.03c.51,0,.91-.1,1.2-.31,.29-.21,.52-.59,.71-1.13l.33-.9-3.15-8.74h1.65l2.2,6.62Z"/>
    </g>
  </g>
</svg>