<svg width="350" height="130" viewBox="0 0 350 130" fill="none" xmlns="http://www.w3.org/2000/svg">
<g filter="url(#filter0_d_8026_18758)">
<rect x="25" y="21" width="300" height="80" rx="8" fill="white"/>
</g>
<path d="M235.511 47L228.612 61.7591L226.018 56.1668H223.212L227.478 65.3144H229.746L238.298 47H235.511Z" fill="#D52B1E"/>
<path d="M205.916 74.4049H211.47V64.2388C211.47 61.9135 212.815 60.28 214.814 60.28C216.736 60.28 217.735 61.6252 217.735 63.5662V74.4049H223.289V62.5092C223.289 58.4735 220.867 55.6293 216.947 55.6293C214.449 55.6293 212.7 56.7055 211.393 58.6657H211.278V56.1674H205.897L205.916 74.4049ZM195.001 55.6678C189.197 55.6678 185.315 59.838 185.315 65.3342C185.315 70.792 189.197 75.0007 195.001 75.0007C200.804 75.0007 204.686 70.792 204.686 65.3342C204.705 59.838 200.804 55.6678 195.001 55.6678ZM194.962 70.8881C192.329 70.8881 190.926 68.6781 190.926 65.3342C190.926 61.9519 192.31 59.7803 194.962 59.7803C197.595 59.7803 199.055 61.9519 199.055 65.3342C199.075 68.6781 197.614 70.8881 194.962 70.8881ZM169.48 74.4049H185.084V70.0233H176.244V69.908L184.7 60.4337V56.1482H169.48V60.549H178.031V60.6643L169.48 70.2155V74.4049ZM162.35 74.4049H167.942V56.1674H162.35V74.4049ZM149.378 74.4049H154.951V66.026C154.951 62.221 157.238 60.5298 160.716 61.0103H160.832V56.2059C160.543 56.0906 160.217 56.0713 159.698 56.0713C157.526 56.0713 156.066 57.0706 154.817 59.2038H154.701V56.1674H149.378V74.4049ZM139.154 70.9073C136.695 70.9073 135.196 69.3123 134.907 66.8524H148.052C148.091 62.932 147.053 59.7995 144.881 57.8394C143.344 56.4173 141.326 55.6293 138.751 55.6293C133.255 55.6293 129.45 59.7995 129.45 65.2573C129.45 70.7536 133.082 74.943 139.116 74.943C141.403 74.943 143.209 74.328 144.708 73.3095C146.303 72.2141 147.456 70.5998 147.764 69.0048H142.421C141.902 70.1963 140.788 70.9073 139.154 70.9073ZM138.866 59.6074C140.826 59.6074 142.172 61.0679 142.402 63.2011H134.946C135.388 61.0487 136.56 59.6074 138.866 59.6074ZM118.342 74.4049H124.184L130.526 56.1674H124.933L121.378 67.8902H121.301L117.746 56.1674H112L118.342 74.4049ZM162.35 49.6719H167.942V54.63H162.35V49.6719Z" fill="black"/>
<defs>
<filter id="filter0_d_8026_18758" x="0" y="0" width="350" height="130" filterUnits="userSpaceOnUse" color-interpolation-filters="sRGB">
<feFlood flood-opacity="0" result="BackgroundImageFix"/>
<feColorMatrix in="SourceAlpha" type="matrix" values="0 0 0 0 0 0 0 0 0 0 0 0 0 0 0 0 0 0 127 0" result="hardAlpha"/>
<feMorphology radius="5" operator="dilate" in="SourceAlpha" result="effect1_dropShadow_8026_18758"/>
<feOffset dy="4"/>
<feGaussianBlur stdDeviation="10"/>
<feComposite in2="hardAlpha" operator="out"/>
<feColorMatrix type="matrix" values="0 0 0 0 0 0 0 0 0 0 0 0 0 0 0 0 0 0 0.1 0"/>
<feBlend mode="normal" in2="BackgroundImageFix" result="effect1_dropShadow_8026_18758"/>
<feBlend mode="normal" in="SourceGraphic" in2="effect1_dropShadow_8026_18758" result="shape"/>
</filter>
</defs>
</svg>
