<svg xmlns="http://www.w3.org/2000/svg" xmlns:xlink="http://www.w3.org/1999/xlink" id="Layer_1" x="0px" y="0px" viewBox="0 0 569.83 86.46" style="enable-background:new 0 0 569.83 86.46;" xml:space="preserve">
<style type="text/css">
  .st0{fill:#013D91;}
  .st1{fill:#660099;}
  .st2{fill-rule:evenodd;clip-rule:evenodd;fill:#660099;}
</style>
<g>
  <polygon class="st0" points="87,4.23 102.59,4.23 102.59,40.98 103.14,40.98 138.22,4.23 157.15,4.23 126.53,37.08 159.38,82.18 141.56,82.18 116.51,47.66 102.59,62.13 102.59,82.18 87,82.18"></polygon>
  <path class="st0" d="M165.5,59.35V26.5h14.48v32.85c0,7.24,5.57,12.81,15.03,12.81c6.12,0,12.25-1.67,12.25-1.67V26.5h14.48v52.89 c0,0-13.92,5.01-26.72,5.01C176.08,84.41,165.5,73.83,165.5,59.35"></path>
  <path class="st0" d="M234.54,54.34c0-16.7,13.36-30.07,32.85-30.07c5.01,0,10.58,1.67,10.58,1.67V4.23h14.48v75.17 c0,0-12.25,5.01-25.06,5.01C247.91,84.4,234.54,71.04,234.54,54.34 M277.97,70.48V38.19c0,0-5.57-1.67-10.58-1.67 c-10.58,0-17.82,7.24-17.82,17.82c0,10.58,7.24,17.82,17.82,17.82C272.41,72.16,277.97,70.48,277.97,70.48z"></path>
  <path class="st0" d="M305.81,54.34c0-16.7,13.36-30.07,31.18-30.07c17.82,0,31.18,13.36,31.18,30.07 c0,16.7-13.36,30.07-31.18,30.07C319.17,84.4,305.81,71.04,305.81,54.34 M353.14,54.34c0-10.58-7.24-17.82-16.15-17.82 c-8.91,0-16.15,7.24-16.15,17.82c0,10.58,7.24,17.82,16.15,17.82C345.9,72.16,353.14,64.92,353.14,54.34z"></path>
  <path class="st0" d="M377.64,74.38l4.45-7.24c0,0,8.91,8.35,22.83,8.35c15.03,0,22.27-7.24,22.27-15.59 c0-17.82-46.77-7.8-46.77-35.63C380.42,13.13,391.56,2,409.93,2c15.59,0,25.61,8.91,25.61,8.91l-4.45,7.24 c0,0-8.91-7.24-21.16-7.24c-12.81,0-19.49,6.68-19.49,13.36c0,18.93,46.77,8.91,46.77,35.63c0,12.81-11.69,24.5-32.3,24.5 C387.66,84.4,377.64,74.38,377.64,74.38"></path>
  <path class="st0" d="M450.58,9.24c0-3.34,2.78-6.13,6.13-6.13c3.34,0,6.13,2.78,6.13,6.13c0,3.34-2.78,6.12-6.13,6.12 C453.36,15.36,450.58,12.58,450.58,9.24 M452.25,26.5h9.47v55.68h-9.47V26.5z"></path>
  <path class="st0" d="M480.64,28.73c0,0,9.47-4.46,21.71-4.46c12.81,0,19.49,6.68,19.49,6.68h0.55c0,0,6.68-6.68,17.82-6.68 c16.7,0,25.61,8.91,25.61,25.06v32.85h-9.46V49.33c0-11.13-5.57-16.71-16.15-16.71c-8.91,0-13.92,5.57-13.92,5.57 s1.67,5.01,1.67,11.13v32.85h-9.46V49.33c0-11.13-5.57-16.71-16.15-16.71c-6.68,0-12.25,2.23-12.25,2.23v47.33h-9.47V28.73z"></path>
  <path class="st2" d="M15.6,37.48l24.16-24.16c0.5-0.5,1.3-0.5,1.79,0l24.16,24.16c0.5,0.49,0.5,1.3,0,1.79l-5.96,5.96 c-0.49,0.5-1.3,0.5-1.79,0l-17.3-17.3l-17.3,17.3c-0.5,0.5-1.3,0.5-1.79,0l-5.96-5.96C15.1,38.78,15.1,37.98,15.6,37.48 M28.4,61.98h9.9L27.53,51.2c-0.5-0.5-0.5-1.3,0-1.79l5.96-5.96c0.5-0.5,1.3-0.5,1.79,0l5.38,5.38l5.38-5.38 c0.5-0.5,1.3-0.5,1.79,0l5.96,5.96c0.5,0.49,0.5,1.3,0,1.79L43.01,61.98h9.9c0.7,0,1.27,0.57,1.27,1.27v8.43 c0,0.7-0.57,1.27-1.27,1.27h-6.05c-0.04,0-0.08,0-0.11,0H28.4c-0.7,0-1.26-0.57-1.26-1.26h0v-8.43 C27.14,62.55,27.7,61.98,28.4,61.98z M6.46,3.05h68.39c0.75,0,1.37,0.62,1.37,1.37v77.07c0,0.75-0.62,1.37-1.37,1.37H6.46 c-0.75,0-1.37-0.62-1.37-1.37V4.42C5.1,3.66,5.71,3.05,6.46,3.05z"></path>
</g>
</svg>