<?xml version="1.0" encoding="UTF-8"?>
<svg id="_ëÎÓÈ_1" data-name="ëÎÓÈ 1" xmlns="http://www.w3.org/2000/svg" xmlns:xlink="http://www.w3.org/1999/xlink" viewBox="0 0 93 40">
  <defs>
    <style>
      .cls-1 {
        fill: url(#linear-gradient);
      }

      .cls-2 {
        fill: #f79e1b;
      }

      .cls-3 {
        fill: #eb001b;
      }

      .cls-4 {
        fill: #ff5a00;
      }
    </style>
    <linearGradient id="linear-gradient" x1="16.25" y1="-10.25" x2="75.7" y2="49.2" gradientUnits="userSpaceOnUse">
      <stop offset="0" stop-color="#f79e1b"/>
      <stop offset=".52" stop-color="#f47c21"/>
      <stop offset="1" stop-color="#f15a29"/>
    </linearGradient>
  </defs>
  <rect class="cls-1" width="93" height="40" rx="12" ry="12"/>
  <g>
    <path class="cls-3" d="M42.45,31.6c-2.71,2.12-6.13,3.38-9.84,3.38-8.83,0-16-7.16-16-16S23.78,2.99,32.61,2.99c3.73,0,7.16,1.28,9.88,3.42-3.75,2.93-6.16,7.49-6.16,12.61s2.39,9.65,6.11,12.58Z"/>
    <path class="cls-2" d="M68.33,19.02c0,8.83-7.16,16-16,16-3.73,0-7.16-1.28-9.88-3.42,3.75-2.93,6.16-7.49,6.16-12.61s-2.39-9.65-6.11-12.58c2.71-2.12,6.13-3.38,9.84-3.38,8.83,0,16,7.16,16,16Z"/>
    <path class="cls-4" d="M48.61,18.99c0,5.12-2.41,9.69-6.16,12.61-3.72-2.93-6.11-7.48-6.11-12.58s2.41-9.69,6.16-12.61c3.72,2.93,6.11,7.48,6.11,12.58Z"/>
  </g>
  <g>
    <path d="M35.72,16.16c-.22,0-.45,.05-.68,.16-.23,.1-.51,.35-.84,.74-.2-.6-.66-.9-1.39-.9-.51,0-.97,.25-1.39,.75v-.63h-.89v4.98h.89v-3.56c.41-.53,.83-.8,1.26-.8,.28,0,.48,.09,.6,.26,.12,.18,.18,.47,.18,.88v3.22h.88v-3.56c.41-.53,.83-.8,1.26-.8,.28,0,.48,.09,.6,.26,.12,.18,.18,.47,.18,.88v3.22h.89v-3.25c0-1.22-.51-1.83-1.53-1.83Z"/>
    <path d="M42.02,16.54c-.36-.25-.85-.38-1.49-.38-1.37,0-2.08,.51-2.15,1.53h.88c.02-.56,.43-.84,1.22-.84,.38,0,.65,.05,.82,.16,.17,.11,.28,.24,.31,.4,.04,.16,.06,.42,.06,.78h-.43c-2,0-3.01,.58-3.01,1.74,0,.42,.16,.77,.48,1.03,.32,.27,.73,.4,1.22,.4,.71,0,1.29-.21,1.74-.63v.51h.88v-3.22c0-.74-.18-1.24-.53-1.49Zm-.35,3.4c-.16,.23-.37,.4-.64,.53-.27,.13-.55,.2-.84,.2-.32,0-.57-.07-.76-.2-.19-.14-.28-.33-.28-.58,0-.7,.64-1.05,1.92-1.05h.6v1.1Z"/>
    <path d="M47.2,18.79c-.29-.19-.74-.36-1.34-.51-.6-.15-.98-.26-1.13-.35-.15-.09-.23-.23-.23-.42,0-.22,.1-.38,.29-.49,.2-.11,.44-.17,.74-.17,.67,0,1.02,.23,1.06,.7h.88c-.03-.93-.69-1.39-2-1.39-.56,0-1.01,.14-1.35,.41-.34,.27-.5,.61-.5,1.02,0,.46,.14,.78,.41,.96,.27,.18,.7,.35,1.28,.49,.59,.15,.97,.27,1.16,.36,.19,.09,.28,.25,.28,.48s-.1,.42-.29,.57c-.19,.15-.47,.23-.84,.23-.82,0-1.23-.3-1.24-.91h-.89c.06,1.07,.77,1.6,2.13,1.6,.61,0,1.09-.15,1.46-.45,.36-.3,.54-.67,.54-1.13s-.15-.81-.44-1Z"/>
    <path d="M49.8,20.49c-.09-.09-.13-.31-.13-.65v-2.87h.81v-.69h-.81v-1.24h-.88v1.24h-.61v.69h.61v2.82c0,.35,.02,.63,.06,.83,.04,.2,.15,.37,.31,.5,.17,.13,.43,.19,.8,.19,.23,0,.44-.02,.63-.06v-.67c-.14,.03-.29,.04-.44,.04s-.27-.05-.35-.14Z"/>
    <path d="M53.35,16.16c-.69,0-1.26,.23-1.69,.69-.43,.46-.64,1.1-.64,1.91s.22,1.46,.67,1.92c.44,.46,1.03,.69,1.76,.69,.57,0,1.05-.14,1.45-.42,.4-.28,.63-.67,.7-1.19h-.91c-.01,.29-.14,.52-.39,.67-.25,.16-.53,.24-.84,.24-.41,0-.75-.14-1.03-.42-.28-.28-.44-.7-.48-1.28h3.75v-.21c0-.83-.21-1.47-.64-1.92-.42-.45-.99-.68-1.7-.68Zm-1.39,2.12c.07-.48,.23-.84,.48-1.08,.25-.24,.56-.35,.91-.35s.67,.12,.92,.36c.25,.24,.41,.6,.48,1.07h-2.79Z"/>
    <path d="M57.56,16.97v-.69h-.89v4.98h.89v-3.52c.32-.47,.71-.71,1.16-.71,.23,0,.41,.02,.54,.06v-.88c-.14-.02-.28-.04-.4-.04-.49,0-.92,.27-1.29,.81Z"/>
    <path d="M61.89,16.85c.3,0,.55,.08,.76,.23,.21,.16,.32,.38,.34,.68h.91c-.07-.52-.28-.92-.64-1.19-.36-.28-.82-.41-1.36-.41-.71,0-1.27,.23-1.7,.68-.42,.45-.64,1.09-.64,1.92s.21,1.47,.64,1.92c.42,.45,.99,.68,1.7,.68,.54,0,1-.14,1.36-.41,.36-.28,.58-.67,.64-1.19h-.91c-.01,.29-.12,.52-.34,.68-.21,.16-.47,.23-.76,.23-.42,0-.76-.16-1.03-.48-.26-.32-.39-.8-.39-1.43s.13-1.11,.39-1.43c.26-.32,.6-.48,1.03-.48Z"/>
    <path d="M68.18,16.54c-.36-.25-.85-.38-1.49-.38-1.37,0-2.08,.51-2.15,1.53h.88c.02-.56,.43-.84,1.22-.84,.38,0,.65,.05,.82,.16,.17,.11,.28,.24,.31,.4,.04,.16,.06,.42,.06,.78h-.43c-2,0-3.01,.58-3.01,1.74,0,.42,.16,.77,.48,1.03,.32,.27,.73,.4,1.22,.4,.71,0,1.29-.21,1.74-.63v.51h.88v-3.22c0-.74-.18-1.24-.53-1.49Zm-.35,3.4c-.16,.23-.37,.4-.64,.53-.27,.13-.55,.2-.84,.2-.32,0-.57-.07-.76-.2-.19-.14-.28-.33-.28-.58,0-.7,.64-1.05,1.92-1.05h.6v1.1Z"/>
    <path d="M70.9,16.97v-.69h-.89v4.98h.89v-3.52c.32-.47,.71-.71,1.16-.71,.23,0,.41,.02,.54,.06v-.88c-.14-.02-.28-.04-.4-.04-.49,0-.92,.27-1.29,.81Z"/>
    <path d="M76.37,14.38v2.28c-.37-.33-.83-.5-1.36-.5-.6,0-1.1,.24-1.5,.71-.4,.47-.6,1.12-.6,1.93s.18,1.41,.53,1.87c.36,.46,.86,.69,1.51,.69,.55,0,1.03-.24,1.42-.71v.6h.88v-6.87h-.88Zm0,5.44c-.4,.57-.85,.85-1.35,.85-.38,0-.67-.16-.89-.48-.21-.32-.32-.78-.32-1.4,0-.65,.11-1.13,.34-1.46,.23-.33,.53-.49,.91-.49,.49,0,.93,.2,1.31,.6v2.36Z"/>
  </g>
</svg>