<?xml version="1.0" encoding="UTF-8"?>
<svg id="_ëÎÓÈ_1" data-name="ëÎÓÈ 1" xmlns="http://www.w3.org/2000/svg" xmlns:xlink="http://www.w3.org/1999/xlink" viewBox="0 0 93 40">
  <defs>
    <style>
      .cls-1 {
        fill: url(#linear-gradient);
      }

      .cls-2 {
        fill: #fff;
      }
    </style>
    <linearGradient id="linear-gradient" x1="46.5" y1="-.35" x2="46.5" y2="39.65" gradientUnits="userSpaceOnUse">
      <stop offset=".13" stop-color="#4676d4"/>
      <stop offset=".97" stop-color="#5297da"/>
      <stop offset="1" stop-color="#5399db"/>
    </linearGradient>
  </defs>
  <rect class="cls-1" width="93" height="40" rx="12" ry="12"/>
  <g>
    <path class="cls-2" d="M30.35,8.48l-5.68,14.2-2.29-12.04c-.24-1.25-1.33-2.16-2.61-2.16H10.83c-.26,0-.48,.21-.48,.48,0,.24,.18,.44,.42,.47,2.98,.36,4.58,.67,5.83,2.98,1.31,2.42,2.32,9.02,4.5,17.11h5.92l9.09-21.04h-5.76Z"/>
    <polygon class="cls-2" points="38.64 8.48 34.2 29.52 39.35 29.52 43.79 8.48 38.64 8.48"/>
    <path class="cls-2" d="M54.16,17.02c-1.81-.84-3.4-1.59-3.4-2.89,0-1,1.09-2.03,3.34-2.03,1.99-.05,3.76,.65,4.46,1.04l1.54-3.88c-1.05-.54-2.72-1.16-5.6-1.16-4.73,0-8.76,2.52-8.76,6.89,0,3.02,2.55,4.66,4.98,5.73,2.12,.94,3.09,1.68,3.09,2.81,0,1.63-1.7,2.36-3.43,2.36-2.23,0-4.24-.67-5.66-1.53l-1.68,3.79c1.16,.86,3.52,1.75,6.71,1.75,4.91,0,9.12-2.36,9.12-7.15,0-2.8-1.88-4.46-4.72-5.73Z"/>
    <path class="cls-2" d="M74.31,8.48h-5.01c-1,0-1.9,.6-2.28,1.52l-8.09,19.52h5.63l1.2-3.06h7.21l.59,3.06h5.1l-4.34-21.04Zm-7.01,13.74l3.03-8.17,1.71,8.17h-4.74Z"/>
  </g>
</svg>