<svg width="350" height="130" viewBox="0 0 350 130" fill="none" xmlns="http://www.w3.org/2000/svg">
<g filter="url(#filter0_d_76_145)">
<rect x="25" y="21" width="300" height="80" rx="8" fill="white"/>
</g>
<path d="M133.996 61C133.996 72.0454 125.045 81 114 81C102.955 81 94 72.0454 94 61C94 49.9546 102.955 41 114 41C125.045 41 133.996 49.9546 133.996 61Z" fill="#EE3023"/>
<path d="M114.158 72.1519C108.665 72.1705 102.948 67.4817 102.922 59.9491C102.904 54.9702 105.593 50.175 109.025 47.331C112.376 44.5605 116.966 42.7784 121.125 42.7637C121.662 42.7637 122.224 42.8077 122.566 42.9253C118.928 43.6785 116.032 47.0664 116.043 50.9062C116.043 51.0347 116.054 51.1707 116.069 51.2332C122.158 52.7177 124.921 56.3921 124.939 61.4738C124.954 66.5593 120.941 72.1298 114.158 72.1519Z" fill="white"/>
<path d="M146.911 69.2846L140.797 54.6934H144.791L148.605 64.3829L152.302 54.6934H156.116L150.181 69.2846H146.911Z" fill="#EE3023"/>
<path d="M166.757 61.9128C166.757 61.3065 166.687 60.7296 166.544 60.1821C166.404 59.6347 166.191 59.1643 165.908 58.7712C165.625 58.3743 165.284 58.062 164.879 57.8305C164.475 57.5953 164.001 57.4777 163.457 57.4777C162.913 57.4777 162.436 57.5953 162.035 57.8305C161.631 58.0619 161.286 58.3743 161.006 58.7712C160.724 59.1643 160.51 59.6347 160.371 60.1821C160.227 60.7296 160.158 61.3065 160.158 61.9128C160.158 62.5411 160.227 63.1254 160.371 63.6618C160.51 64.1983 160.716 64.6686 160.988 65.0728C161.26 65.477 161.605 65.7967 162.021 66.0318C162.432 66.2633 162.913 66.3809 163.457 66.3809C164.001 66.3809 164.475 66.2633 164.879 66.0318C165.284 65.7967 165.625 65.477 165.908 65.0728C166.191 64.6686 166.404 64.1983 166.544 63.6618C166.687 63.1254 166.757 62.5411 166.757 61.9128ZM170.45 61.9288C170.45 62.8805 170.303 63.8138 170.013 64.7324C169.719 65.651 169.285 66.4704 168.708 67.1979C168.135 67.9255 167.407 68.5097 166.529 68.9544C165.651 69.399 164.626 69.6194 163.457 69.6194C162.285 69.6194 161.26 69.3989 160.385 68.9544C159.507 68.5098 158.78 67.9255 158.203 67.198C157.63 66.4704 157.196 65.651 156.902 64.7324C156.612 63.8138 156.465 62.8805 156.465 61.9288C156.465 60.9808 156.612 60.0548 156.902 59.1436C157.196 58.236 157.63 57.424 158.203 56.7074C158.78 55.9909 159.507 55.4177 160.385 54.9841C161.26 54.5505 162.285 54.3301 163.457 54.3301C164.626 54.3301 165.647 54.5506 166.514 54.9841C167.382 55.4177 168.109 55.9909 168.693 56.7074C169.281 57.424 169.719 58.236 170.013 59.1436C170.303 60.0548 170.45 60.9808 170.45 61.9288Z" fill="#EE3023"/>
<path d="M181.726 57.9031C181.002 57.6202 180.33 57.4769 179.705 57.4769C179.066 57.4769 178.511 57.6019 178.052 57.8443C177.589 58.0867 177.207 58.4138 176.905 58.8291C176.604 59.2443 176.38 59.7109 176.229 60.229C176.079 60.7434 176.002 61.2763 176.002 61.8237C176.002 62.43 176.068 63.0106 176.2 63.5691C176.329 64.1239 176.531 64.6127 176.803 65.0278C177.071 65.4431 177.413 65.7774 177.824 66.031C178.236 66.2808 178.724 66.4094 179.287 66.4094C179.749 66.4094 180.22 66.2809 180.701 66.031C181.183 65.7774 181.524 65.4761 181.726 65.1344L181.726 57.9031ZM182.028 69.2828L181.877 68.1658C181.535 68.548 181.083 68.886 180.517 69.1763C179.955 69.4702 179.29 69.6172 178.526 69.6172C177.523 69.6172 176.634 69.4042 175.873 68.9816C175.105 68.559 174.462 67.9931 173.94 67.2877C173.418 66.5822 173.018 65.7627 172.746 64.8331C172.478 63.9071 172.342 62.9371 172.342 61.9266C172.342 60.9786 172.481 60.049 172.761 59.1414C173.044 58.2338 173.47 57.4218 174.043 56.7053C174.62 55.9887 175.336 55.4155 176.204 54.9819C177.067 54.5484 178.085 54.3279 179.25 54.3279C180.014 54.3279 180.841 54.4711 181.726 54.7504V49.0918H185.478V69.2828H182.028Z" fill="#EE3023"/>
<path d="M196.047 62.4433C195.643 62.4646 195.224 62.5022 194.798 62.5499C194.372 62.6014 193.967 62.6675 193.582 62.7483C192.766 62.9099 192.204 63.1856 191.888 63.5787C191.575 63.9756 191.417 64.4018 191.417 64.8685C191.417 65.3498 191.594 65.7393 191.95 66.0333C192.307 66.3235 192.806 66.4705 193.457 66.4705C193.945 66.4705 194.419 66.3713 194.875 66.1692C195.331 65.9671 195.724 65.7136 196.047 65.4123V62.4433ZM196.348 69.2741L196.201 68.1827C195.794 68.631 195.279 68.9838 194.651 69.2373C194.023 69.4909 193.335 69.6195 192.586 69.6195C191.957 69.6195 191.351 69.5128 190.778 69.2998C190.197 69.0905 189.687 68.7854 189.242 68.3922C188.797 67.999 188.437 67.5177 188.165 66.9408C187.89 66.3639 187.754 65.7135 187.754 64.986C187.754 64.2621 187.894 63.6191 188.18 63.0643C188.463 62.5094 188.845 62.0428 189.334 61.6569C189.819 61.2748 190.377 60.9625 191.006 60.72C191.63 60.4776 192.292 60.2937 192.979 60.1725C193.464 60.0733 193.997 59.9997 194.574 59.9482C195.151 59.8967 195.632 59.8527 196.018 59.8122V59.5992C196.018 58.7908 195.812 58.2175 195.393 57.8722C194.978 57.5304 194.405 57.3578 193.677 57.3578C193.251 57.3578 192.843 57.4092 192.457 57.5121C192.071 57.6113 191.73 57.7364 191.425 57.8869C191.12 58.0413 190.851 58.1919 190.616 58.3426C190.385 58.4932 190.197 58.6292 190.054 58.7504L188.812 56.1195C188.974 55.9763 189.22 55.8072 189.554 55.6051C189.889 55.403 190.289 55.2046 190.767 55.0135C191.241 54.8223 191.774 54.6607 192.369 54.5285C192.964 54.3962 193.607 54.3301 194.291 54.3301C195.099 54.3301 195.838 54.4368 196.503 54.6498C197.168 54.8628 197.745 55.1936 198.23 55.6492C198.711 56.1012 199.09 56.6744 199.365 57.3725C199.637 58.067 199.773 58.9084 199.773 59.8968V69.2741H196.348Z" fill="#EE3023"/>
<path d="M211.369 52.4215C211.248 52.3628 211.013 52.2746 210.66 52.1642C210.304 52.0541 209.837 51.9989 209.249 51.9989C208.727 51.9989 208.286 52.157 207.934 52.4692C207.581 52.7815 207.404 53.2923 207.404 53.9978V54.6923H210.553V57.72H207.434V69.2835H203.679V57.72H201.742V54.6923H203.679V53.9059C203.679 52.9579 203.8 52.1569 204.042 51.4992C204.285 50.8451 204.623 50.3086 205.057 49.8971C205.49 49.4819 206.001 49.1769 206.585 48.9859C207.173 48.7947 207.809 48.6992 208.496 48.6992C209.403 48.6992 210.153 48.7837 210.748 48.9565C211.343 49.1293 211.693 49.2431 211.792 49.3056L211.369 52.4215Z" fill="#EE3023"/>
<path d="M221.601 61.9128C221.601 61.3065 221.527 60.7296 221.388 60.1821C221.248 59.6347 221.035 59.1643 220.752 58.7712C220.469 58.3743 220.127 58.062 219.723 57.8305C219.319 57.5953 218.845 57.4777 218.301 57.4777C217.757 57.4777 217.28 57.5953 216.879 57.8305C216.475 58.0619 216.129 58.3743 215.847 58.7712C215.567 59.1643 215.354 59.6347 215.211 60.1821C215.071 60.7296 215.001 61.3065 215.001 61.9128C215.001 62.5411 215.071 63.1254 215.211 63.6618C215.354 64.1983 215.56 64.6686 215.832 65.0728C216.104 65.477 216.449 65.7967 216.861 66.0318C217.276 66.2633 217.757 66.3809 218.301 66.3809C218.845 66.3809 219.319 66.2633 219.723 66.0318C220.127 65.7967 220.469 65.477 220.752 65.0728C221.035 64.6686 221.248 64.1983 221.388 63.6618C221.527 63.1254 221.601 62.5411 221.601 61.9128ZM225.294 61.9288C225.294 62.8805 225.147 63.8138 224.853 64.7324C224.562 65.651 224.129 66.4704 223.552 67.1979C222.979 67.9255 222.251 68.5097 221.373 68.9544C220.495 69.399 219.47 69.6194 218.301 69.6194C217.129 69.6194 216.104 69.3989 215.229 68.9544C214.351 68.5098 213.623 67.9255 213.047 67.198C212.473 66.4704 212.04 65.651 211.746 64.7324C211.452 63.8138 211.309 62.8805 211.309 61.9288C211.309 60.9808 211.452 60.0548 211.746 59.1436C212.04 58.236 212.473 57.424 213.047 56.7074C213.623 55.9909 214.351 55.4177 215.229 54.9841C216.104 54.5505 217.129 54.3301 218.301 54.3301C219.47 54.3301 220.491 54.5506 221.358 54.9841C222.225 55.4177 222.953 55.9909 223.537 56.7074C224.125 57.424 224.562 58.236 224.853 59.1436C225.147 60.0548 225.294 60.9808 225.294 61.9288Z" fill="#EE3023"/>
<path d="M236.947 69.2833V60.9607C236.947 59.851 236.715 58.9912 236.253 58.3849C235.786 57.7823 235.143 57.4773 234.312 57.4773C233.728 57.4773 233.188 57.628 232.696 57.9329C232.2 58.2343 231.77 58.5686 231.406 58.9324V69.2833H227.654V54.6921H231.075L231.255 55.8422C231.843 55.3609 232.501 54.9861 233.239 54.7252C233.974 54.4607 234.717 54.332 235.462 54.332C236.23 54.332 236.936 54.4459 237.583 54.6774C238.229 54.9126 238.784 55.28 239.247 55.7834C239.714 56.2868 240.07 56.9445 240.324 57.7493C240.574 58.5576 240.702 59.5277 240.702 60.6557V69.2833H236.947Z" fill="#EE3023"/>
<path d="M252.379 60.235C252.338 59.7316 252.232 59.2906 252.059 58.9195C251.886 58.5447 251.673 58.2434 251.42 58.0119C251.166 57.7767 250.894 57.6077 250.6 57.4938C250.303 57.3837 250.005 57.3285 249.7 57.3285C249.05 57.3285 248.432 57.5709 247.845 58.0561C247.257 58.5411 246.911 59.2649 246.808 60.235H252.379ZM246.72 62.9283C246.801 64.1592 247.183 65.0485 247.874 65.5923C248.561 66.1362 249.454 66.4117 250.545 66.4117C251.052 66.4117 251.53 66.364 251.975 66.2757C252.419 66.184 252.816 66.0699 253.161 65.9267C253.507 65.7869 253.801 65.6437 254.043 65.5041C254.286 65.3609 254.466 65.2285 254.591 65.1073L255.59 68.168C255.447 68.2672 255.219 68.4033 254.907 68.5759C254.594 68.7487 254.205 68.9066 253.742 69.061C253.279 69.2116 252.732 69.3402 252.107 69.4541C251.482 69.5642 250.795 69.6194 250.049 69.6194C249.097 69.6194 248.197 69.4688 247.337 69.1675C246.481 68.8625 245.728 68.3922 245.085 67.7565C244.438 67.1208 243.924 66.3308 243.542 65.3828C243.156 64.4348 242.965 63.3031 242.965 61.9913C242.965 60.7603 243.141 59.6691 243.494 58.721C243.847 57.7731 244.332 56.9757 244.945 56.329C245.563 55.6859 246.279 55.1899 247.095 54.8445C247.914 54.5028 248.785 54.3301 249.715 54.3301C250.644 54.3301 251.501 54.4845 252.291 54.7857C253.077 55.087 253.757 55.5574 254.334 56.193C254.907 56.8287 255.362 57.6517 255.693 58.6622C256.028 59.669 256.193 60.8706 256.193 62.2632V62.9283L246.72 62.9283Z" fill="#EE3023"/>
<defs>
<filter id="filter0_d_76_145" x="0" y="0" width="350" height="130" filterUnits="userSpaceOnUse" color-interpolation-filters="sRGB">
<feFlood flood-opacity="0" result="BackgroundImageFix"/>
<feColorMatrix in="SourceAlpha" type="matrix" values="0 0 0 0 0 0 0 0 0 0 0 0 0 0 0 0 0 0 127 0" result="hardAlpha"/>
<feMorphology radius="5" operator="dilate" in="SourceAlpha" result="effect1_dropShadow_76_145"/>
<feOffset dy="4"/>
<feGaussianBlur stdDeviation="10"/>
<feComposite in2="hardAlpha" operator="out"/>
<feColorMatrix type="matrix" values="0 0 0 0 0 0 0 0 0 0 0 0 0 0 0 0 0 0 0.1 0"/>
<feBlend mode="normal" in2="BackgroundImageFix" result="effect1_dropShadow_76_145"/>
<feBlend mode="normal" in="SourceGraphic" in2="effect1_dropShadow_76_145" result="shape"/>
</filter>
</defs>
</svg>
